<svg width="16" height="14" viewBox="0 0 16 14" fill="#9C9C9C" xmlns="http://www.w3.org/2000/svg">
<path fill-rule="evenodd" clip-rule="evenodd" d="M1.8065 2.0266C1.5465 1.7666 1.5465 1.3466 1.8065 1.0866C2.0665 0.826602 2.49317 0.826602 2.75317 1.0866L13.6265 11.9733C13.8865 12.2333 13.8865 12.6533 13.6265 12.9133C13.3665 13.1733 12.9465 13.1733 12.6865 12.9133L10.8732 11.0999C9.97984 11.4466 9.01317 11.6466 7.99984 11.6466C4.6665 11.6466 1.81984 9.57327 0.666504 6.6466C1.17984 5.33327 2.03984 4.19993 3.11984 3.33993L1.8065 2.0266ZM11.3332 6.64662C11.3332 4.80662 9.83984 3.31329 7.99984 3.31329C7.65984 3.31329 7.33317 3.37995 7.01984 3.47329L5.57317 2.02662C6.33984 1.77995 7.15317 1.64662 7.99984 1.64662C11.3332 1.64662 14.1798 3.71995 15.3332 6.63995C14.8732 7.81329 14.1398 8.83995 13.2132 9.65995L11.1732 7.61995C11.2665 7.31329 11.3332 6.98662 11.3332 6.64662ZM7.99984 9.97992C6.15984 9.97992 4.6665 8.48658 4.6665 6.64658C4.6665 6.13325 4.7865 5.64658 4.99317 5.21992L6.03984 6.26658C6.01984 6.38658 5.99984 6.51325 5.99984 6.64658C5.99984 7.75325 6.89317 8.64658 7.99984 8.64658C8.13317 8.64658 8.25317 8.62658 8.37984 8.59992L9.4265 9.64658C8.99317 9.85992 8.51317 9.97992 7.99984 9.97992ZM9.97984 6.42661C9.87984 5.49328 9.1465 4.76661 8.21984 4.66661L9.97984 6.42661Z" />
</svg>
