<svg width="14" height="14" viewBox="0 0 14 14" fill="none" xmlns="http://www.w3.org/2000/svg">
<path fill-rule="evenodd" clip-rule="evenodd" d="M7.00016 0.333252C3.32016 0.333252 0.333496 3.31992 0.333496 6.99992C0.333496 10.6799 3.32016 13.6666 7.00016 13.6666C10.6802 13.6666 13.6668 10.6799 13.6668 6.99992C13.6668 3.31992 10.6802 0.333252 7.00016 0.333252ZM7.00016 2.33325C8.10683 2.33325 9.00016 3.22659 9.00016 4.33325C9.00016 5.43992 8.10683 6.33325 7.00016 6.33325C5.8935 6.33325 5.00016 5.43992 5.00016 4.33325C5.00016 3.22659 5.8935 2.33325 7.00016 2.33325ZM3.00016 9.65324C3.86016 10.9466 5.3335 11.7999 7.00016 11.7999C8.66683 11.7999 10.1402 10.9466 11.0002 9.65324C10.9802 8.32658 8.32683 7.59991 7.00016 7.59991C5.66683 7.59991 3.02016 8.32658 3.00016 9.65324Z" fill="#9C9C9C"/>
</svg>
