<svg viewBox="0 0 16 10" fill="#9C9C9C" xmlns="http://www.w3.org/2000/svg">
<path fill-rule="evenodd" clip-rule="evenodd" d="M7.3265 2.33325C7.3265 3.43992 6.43984 4.33325 5.33317 4.33325C4.2265 4.33325 3.33317 3.43992 3.33317 2.33325C3.33317 1.22659 4.2265 0.333252 5.33317 0.333252C6.43984 0.333252 7.3265 1.22659 7.3265 2.33325ZM12.6598 2.33325C12.6598 3.43992 11.7732 4.33325 10.6665 4.33325C9.55984 4.33325 8.6665 3.43992 8.6665 2.33325C8.6665 1.22659 9.55984 0.333252 10.6665 0.333252C11.7732 0.333252 12.6598 1.22659 12.6598 2.33325ZM5.33317 5.66659C3.77984 5.66659 0.666504 6.44659 0.666504 7.99992V8.99992C0.666504 9.36659 0.966504 9.66659 1.33317 9.66659H9.33317C9.69984 9.66659 9.99984 9.36659 9.99984 8.99992V7.99992C9.99984 6.44659 6.8865 5.66659 5.33317 5.66659ZM10.0198 5.69992C10.2532 5.67992 10.4732 5.66659 10.6665 5.66659C12.2198 5.66659 15.3332 6.44659 15.3332 7.99992V8.99992C15.3332 9.36659 15.0332 9.66659 14.6665 9.66659H11.2132C11.2865 9.45992 11.3332 9.23325 11.3332 8.99992V7.99992C11.3332 7.01992 10.8065 6.27992 10.0465 5.72659C10.0445 5.72457 10.0425 5.72194 10.0403 5.71907C10.0352 5.71246 10.0291 5.70457 10.0198 5.69992Z" />
</svg>
