<svg viewBox="0 0 16 12" fill="#9C9C9C" xmlns="http://www.w3.org/2000/svg">
<path fill-rule="evenodd" clip-rule="evenodd" d="M1.99984 0.0065918H13.9998C14.7332 0.0065918 15.3332 0.606592 15.3332 1.33993V10.6599C15.3332 11.3933 14.7332 11.9933 13.9998 11.9933H1.9865C1.25984 11.9933 0.666504 11.3999 0.666504 10.6733V8.66659C0.666504 8.29992 0.966504 7.99993 1.33317 7.99993C1.69984 7.99993 1.99984 8.29992 1.99984 8.66659V10.0133C1.99984 10.3799 2.29984 10.6799 2.6665 10.6799H13.3332C13.6998 10.6799 13.9998 10.3799 13.9998 10.0133V1.99326C13.9998 1.62659 13.6998 1.32659 13.3332 1.32659H2.6665C2.29984 1.32659 1.99984 1.62659 1.99984 1.99326V3.33326C1.99984 3.69993 1.69984 3.99993 1.33317 3.99993C0.966504 3.99993 0.666504 3.69993 0.666504 3.33326V1.33993C0.666504 0.606592 1.2665 0.0065918 1.99984 0.0065918ZM9.75984 6.23992L7.89984 8.09992C7.69317 8.30659 7.33317 8.15992 7.33317 7.85992V6.66658H1.33317C0.966504 6.66658 0.666504 6.36658 0.666504 5.99992C0.666504 5.63325 0.966504 5.33325 1.33317 5.33325H7.33317V4.13992C7.33317 3.83992 7.69317 3.69325 7.89984 3.90658L9.75984 5.76659C9.89317 5.89992 9.89317 6.10659 9.75984 6.23992Z" />
</svg>
